<?xml version="1.0" standalone="no"?>
<!DOCTYPE svg PUBLIC "-//W3C//DTD SVG 1.1//EN" "http://www.w3.org/Graphics/SVG/1.1/DTD/svg11.dtd" >
<svg xmlns="http://www.w3.org/2000/svg">
<metadata>
This is a custom SVG webfont generated by Fontspring.
Designer    : Ray Larabie
Foundry     : Ray Larabie
Foundry URL : http://www.typodermic.com
</metadata>
<defs>
<font id="webfont" horiz-adv-x="462" >
<font-face units-per-em="1000" ascent="800" descent="-200" />
<missing-glyph horiz-adv-x="212" />
<glyph unicode="&#x28;C&#x29;" horiz-adv-x="768" d="M389 756q353 0 353 -385q0 -192 -91 -288.5t-262 -96.5q-177 0 -270 96t-93 289q0 191 93 288t270 97zM389 696q-53 0 -101.5 -17.5t-91 -53.5t-67.5 -101t-25 -152q0 -86 25.5 -151t68 -101t90.5 -53t101 -17t100 17t87 53t63.5 101t23.5 151t-23.5 151t-63.5 101.5 t-87 54t-100 17.5zM383 525q-46 0 -77.5 -38t-31.5 -119t31 -118t78 -37q41 0 70 21.5t30 72.5l70 -6q-9 -145 -170 -145q-183 0 -183 212q0 104 48 158.5t135 54.5q83 0 125 -33.5t45 -110.5l-69 -9q-1 31 -10 51.5t-25 30t-31 12.5t-35 3z" />
<glyph unicode="&#x28;R&#x29;" horiz-adv-x="495" d="M354 412h-61l-41 98h-26v-98h-54v234h85q41 0 59 -15t18 -49q0 -47 -35 -60zM226 555h34q24 0 24 26q0 22 -25 22h-33v-48zM251 755q218 0 218 -228q0 -229 -218 -229q-110 0 -167.5 58t-57.5 171q0 111 58 169.5t167 58.5zM251 716q-75 0 -128.5 -45.5t-53.5 -143.5 q0 -96 54.5 -143t127.5 -47t124.5 46.5t51.5 143.5t-51 143t-125 46z" />
<glyph unicode=" "  horiz-adv-x="212" />
<glyph unicode="&#x09;" horiz-adv-x="212" />
<glyph unicode="&#xa0;" horiz-adv-x="212" />
<glyph unicode="!" horiz-adv-x="223" d="M36 782h151l-24 -549h-102zM172 130v-130h-121v130h121z" />
<glyph unicode="&#x22;" horiz-adv-x="278" d="M181 486l-13 292h104l-11 -292h-80zM21 486l-14 292h104l-13 -292h-77z" />
<glyph unicode="#" horiz-adv-x="491" d="M384 744l96 -26l-50 -170h47v-82h-69l-41 -152h70v-83h-93l-51 -187l-96 25l47 162h-83l-52 -187l-95 25l46 162h-49v83h71l41 152h-70v82h95l53 196l95 -25l-48 -171h82zM226 466l-44 -152h82l41 152h-79z" />
<glyph unicode="$" horiz-adv-x="355" d="M212 0h-74v86q-61 8 -90 47.5t-29 120.5l105 16q0 -4 -0.5 -11.5t-0.5 -10.5q0 -35 9 -51.5t36 -16.5q35 0 44.5 13t9.5 48q0 37 -15.5 57t-50.5 40q-63 34 -91 70.5t-28 100.5q0 60 22.5 94.5t78.5 43.5v98h74v-96q59 -4 79.5 -29.5t30.5 -93.5l-95 -17q-5 28 -12 38 t-27 10q-22 0 -29 -11t-7 -33q0 -29 8.5 -46.5t37.5 -33.5q39 -22 54.5 -31.5t38 -31t30.5 -49.5t8 -68q0 -148 -117 -165v-88z" />
<glyph unicode="%" horiz-adv-x="611" d="M145 766q33 0 56 -10.5t35.5 -25.5t18.5 -44.5t7.5 -55t1.5 -70.5q0 -42 -1.5 -66.5t-8 -54.5t-18.5 -46t-35 -27t-56 -11t-55.5 11t-35 27t-19 45.5t-8 55t-1.5 66.5q0 37 1 59.5t4.5 49t11.5 42t21 29.5t33 20t48 6zM190 0h-87l321 756h86zM145 689q-23 0 -28.5 -24 t-5.5 -105t5.5 -105t28.5 -24t28.5 24t5.5 105t-5.5 105t-28.5 24zM466 400q33 0 56 -10t35.5 -25t18.5 -44.5t7.5 -55t1.5 -70.5q0 -42 -1.5 -67t-8 -55t-18.5 -45.5t-35 -26.5t-56 -11t-55.5 11t-35 27t-19 45.5t-8 54.5t-1.5 67q0 44 1.5 70t8 55.5t19 44.5t35 25 t55.5 10zM466 324q-23 0 -28.5 -24t-5.5 -105t5.5 -105t28.5 -24t28 23.5t5 105.5t-5 105.5t-28 23.5z" />
<glyph unicode="&#x26;" horiz-adv-x="517" d="M115 632q0 21 1.5 36t8.5 33t19.5 29.5t36 19.5t55.5 8q70 0 95 -29.5t25 -96.5q0 -71 -24.5 -116.5t-70.5 -91.5q39 -78 105 -170q20 60 27 157l104 -19q-19 -140 -56 -233l70 -73l-80 -96l-55 65q-65 -68 -154 -68q-104 0 -152.5 53t-48.5 123q0 174 137 282 q-43 83 -43 187zM217 90q55 0 96 52q-63 91 -119 208q-52 -69 -52 -156q0 -51 17 -77.5t58 -26.5zM205 622q0 -52 19 -111q44 54 44 111q0 49 -32 49q-31 0 -31 -49z" />
<glyph unicode="'" horiz-adv-x="118" d="M21 486l-14 292h105l-13 -292h-78z" />
<glyph unicode="(" horiz-adv-x="319" d="M212 791l58 -66q-64 -49 -102.5 -159.5t-38.5 -245.5q0 -148 44 -253t120 -138l-48 -69q-219 81 -219 460q0 359 186 471z" />
<glyph unicode=")" horiz-adv-x="319" d="M106 -143l-55 66q64 51 101.5 159.5t37.5 245.5q0 148 -44 253t-120 138l48 70q219 -80 219 -461q0 -361 -187 -471z" />
<glyph unicode="*" horiz-adv-x="488" d="M182 745h123l-20 -151l146 66l31 -99l-160 -32l110 -111l-99 -68l-68 132l-78 -130l-93 69l111 106l-159 37l36 97l143 -66z" />
<glyph unicode="+" horiz-adv-x="522" d="M221 136v195h-195v81h195v195h80v-195h195v-81h-195v-195h-80z" />
<glyph unicode="," horiz-adv-x="173" d="M148 130v-105q0 -70 -74 -147l-33 26q45 45 45 96h-60v130h122z" />
<glyph unicode="-" horiz-adv-x="214" d="M198 253h-191l11 81h190z" />
<glyph unicode="." horiz-adv-x="173" d="M148 130v-130h-122v130h122z" />
<glyph unicode="/" horiz-adv-x="258" d="M0 0l183 745h75l-183 -745h-75z" />
<glyph unicode="0" horiz-adv-x="431" d="M215 -13q-109 0 -147 50q-35 47 -40 187q-2 45 -2 148q0 207 14 268q18 80 77 104q36 14 98 14q28 0 50.5 -2.5t41 -10t32 -14.5t24 -23.5t17.5 -30t12 -41.5t7.5 -49t3.5 -61t1.5 -70t0.5 -84q0 -207 -15 -270q-18 -79 -78 -101q-36 -14 -97 -14zM215 90q41 0 50 51 t9 231t-9.5 233t-49.5 53q-41 0 -50.5 -53t-9.5 -233q0 -198 12 -240q14 -41 48 -42z" />
<glyph unicode="1" horiz-adv-x="254" d="M21 556l-16 95q50 11 82 36t61 71h80v-758h-129v586q-25 -27 -78 -30z" />
<glyph unicode="2" horiz-adv-x="391" d="M188 658q-25 0 -33 -29t-16 -132l-118 16q1 33 2.5 51.5t4 45t6 40t10 32.5t15.5 28t22 20t29.5 16t38.5 8.5t49 3.5q92 0 125 -47.5t33 -167.5q0 -67 -15 -130t-45 -121.5t-56 -98.5t-66 -94h197l-5 -99h-340v96q102 105 155 212t53 235q0 69 -8 92t-38 23z" />
<glyph unicode="3" horiz-adv-x="397" d="M193 758q44 0 74.5 -10.5t47.5 -26t26 -44.5t11.5 -55.5t2.5 -68.5q0 -57 -14.5 -103.5t-44.5 -59.5q49 -18 64.5 -60.5t15.5 -114.5q0 -31 -1 -52t-5 -47t-11.5 -43t-21.5 -35t-33 -28t-47.5 -16.5t-64.5 -6.5q-94 0 -131 38t-44 118l105 36q8 -50 21 -69.5t47 -19.5 q40 0 52 28.5t12 106.5q0 69 -14 90.5t-71 21.5h-34l10 98h25q42 0 52.5 17t10.5 89t-6.5 94.5t-33.5 22.5q-24 0 -34.5 -19t-17.5 -69l-109 10q6 104 37.5 141t123.5 37z" />
<glyph unicode="4" horiz-adv-x="376" d="M9 152v84l171 509h151v-491h45l-11 -102h-34v-152h-126v152h-196zM116 254h89v284z" />
<glyph unicode="5" horiz-adv-x="395" d="M338 637h-153l-11 -170q26 10 80 10q71 0 96 -52.5t25 -173.5q0 -48 -1.5 -78t-7.5 -64t-18.5 -53.5t-33 -36.5t-52.5 -24.5t-76 -7.5q-69 0 -108.5 28.5t-70.5 93.5l87 64q28 -83 83 -83q45 0 55 30.5t10 121.5q0 79 -9.5 104t-48.5 25q-32 0 -54 -18l-85 42l22 350h282 z" />
<glyph unicode="6" horiz-adv-x="425" d="M217 658q-17 0 -29 -5.5t-20 -19.5t-12.5 -30t-6.5 -45t-2.5 -56t-1.5 -71v-6q41 57 121 57q37 0 63 -12.5t40.5 -31t22 -52t9.5 -64t2 -78.5q0 -53 -3 -87t-13.5 -69.5t-30 -55.5t-55 -32.5t-86.5 -12.5q-30 0 -55 6.5t-43 16.5t-32.5 28.5t-24 36t-16 45t-10 49.5 t-5.5 56.5t-2.5 59t-0.5 63.5q0 163 17.5 250.5t56 123.5t110.5 36q92 0 130 -33.5t42 -112.5l-99 -38q-4 45 -16 64.5t-50 19.5zM213 379q-38 0 -58 -67q2 -157 11 -188q12 -34 47 -34q20 0 32.5 10t18 31.5t7 43t1.5 58.5q0 90 -9.5 118t-49.5 28z" />
<glyph unicode="7" horiz-adv-x="328" d="M13 645l11 100h296v-77q-111 -154 -133 -668h-151q8 181 52.5 358.5t111.5 286.5h-187z" />
<glyph unicode="8" horiz-adv-x="418" d="M210 758q87 0 124.5 -44.5t37.5 -136.5q0 -88 -15 -125t-58 -51q53 -20 76.5 -65.5t23.5 -136.5q0 -119 -43 -165.5t-146 -46.5t-146 46.5t-43 165.5q0 101 18 142t84 59q-47 15 -61 50.5t-14 126.5t36.5 136t125.5 45zM145 204q0 -66 11.5 -94t48.5 -28t48 27.5t11 94.5 q0 73 -10 99t-50 48q-38 -16 -48.5 -44t-10.5 -103zM217 671q-25 0 -36.5 -19t-11.5 -71q0 -68 9 -90.5t38 -44.5q20 16 27.5 26t12.5 35.5t5 73.5q0 53 -9.5 71.5t-34.5 18.5z" />
<glyph unicode="9" horiz-adv-x="425" d="M204 86q48 0 61.5 58t14.5 195q-40 -56 -121 -56q-37 0 -63 12.5t-40.5 31t-22 52t-9.5 63.5t-2 77q0 54 3 86t13 64.5t30.5 49.5t55 27.5t86.5 10.5q34 0 61 -6t46 -20.5t33.5 -30t23 -42.5t14 -49t8 -59t3 -63t0.5 -70q0 -241 -42 -336t-147 -95q-91 0 -135 40.5 t-48 120.5l99 38q10 -99 78 -99zM213 386q37 0 57 67q-2 139 -9.5 170t-47.5 31q-39 0 -49.5 -27.5t-10.5 -103.5q0 -84 10 -110.5t50 -26.5z" />
<glyph unicode=":" horiz-adv-x="173" d="M148 130v-130h-122v130h122zM148 543v-130h-122v130h122z" />
<glyph unicode=";" horiz-adv-x="173" d="M148 543v-130h-122v130h122zM148 130v-105q0 -70 -74 -147l-33 26q45 45 45 96h-60v130h122z" />
<glyph unicode="&#x3c;" horiz-adv-x="385" d="M359 215v-95l-333 209v67l333 212v-97l-255 -147z" />
<glyph unicode="=" horiz-adv-x="545" d="M519 241h-493v81h493v-81zM519 442h-493v80h493v-80z" />
<glyph unicode="&#x3e;" horiz-adv-x="385" d="M26 120v95l254 149l-254 147v97l333 -212v-67z" />
<glyph unicode="?" horiz-adv-x="359" d="M219 607q-1 51 -9 70.5t-34 19.5q-16 0 -26 -8t-15.5 -29.5t-8 -44t-4.5 -65.5l-115 15q3 68 9.5 106.5t24.5 70t52 44t90 12.5q97 0 130 -41.5t33 -147.5q0 -57 -22 -105t-48 -76t-48 -67.5t-22 -80.5q0 -27 9 -54h-102q-14 27 -14 66q0 48 18.5 92.5t41.5 74t41.5 69.5 t18.5 79zM222 130v-130h-122v130h122z" />
<glyph unicode="@" horiz-adv-x="582" d="M290 484q33 0 51 -41q2 7 4.5 25t3.5 22h43v-258q0 -22 7.5 -39t23.5 -17q17 0 25 10t13.5 53t5.5 131q0 67 -1 101.5t-7.5 70t-16.5 49.5t-31.5 27t-49 15.5t-72.5 2.5t-71 -3t-48 -18t-31.5 -34t-16.5 -64.5t-8.5 -94.5t-1.5 -138q0 -215 34 -279q26 -48 94 -57 q29 -4 105 -4q122 0 171 76l42 -75q-59 -95 -216 -95q-72 0 -117 5t-83.5 22.5t-58.5 44.5t-34 78.5t-18.5 117t-4.5 166.5q0 77 1 125.5t5.5 99t11.5 78.5t21 56t32.5 41t47 24.5t62.5 14.5t82 3q39 0 68.5 -1.5t55 -7.5t43.5 -12t33 -20t24.5 -26.5t17 -37.5t11 -46.5 t5.5 -59.5t2.5 -70.5t0.5 -85.5q0 -80 -9 -133t-26.5 -79.5t-37 -36t-46.5 -9.5q-55 0 -70 60q-20 -60 -71 -60q-68 0 -84 35t-16 159q0 122 16 155.5t84 33.5zM290 413q-21 0 -25.5 -19t-4.5 -95q0 -79 5 -101t28 -22q19 0 25.5 16.5t9.5 52.5v86q-5 43 -12.5 62.5 t-25.5 19.5z" />
<glyph unicode="A" horiz-adv-x="413" d="M267 0l-22 167h-95l-23 -167h-122l133 745h135l135 -745h-141zM198 536l-39 -267h76z" />
<glyph unicode="B" horiz-adv-x="430" d="M36 0v745h157q54 0 91 -8.5t58 -22t32 -39t14 -50t3 -64.5q0 -136 -97 -160q120 -26 120 -173q0 -34 -0.5 -53.5t-4.5 -47.5t-11 -43.5t-20 -33.5t-33 -27.5t-49.5 -16t-67.5 -6.5h-192zM158 343v-248h36q65 0 80.5 26t15.5 102q0 70 -14 95t-69 25h-49zM158 648v-214h33 q49 0 62 25.5t13 90.5q0 60 -11 79t-57 19h-40z" />
<glyph unicode="C" horiz-adv-x="436" d="M224 658q-40 0 -51 -58.5t-11 -227.5q0 -168 11 -225t51 -57q18 0 29.5 5t18.5 15t9.5 31t3.5 45.5t2 66.5v10l128 -11q-2 -37 -3.5 -52l-4.5 -44.5t-5.5 -41t-8 -33t-12.5 -30t-17.5 -22.5t-23.5 -19l-30 -12t-38.5 -9t-47.5 -2q-32 0 -57.5 5.5t-45 13.5t-34 24.5 t-25 32.5t-17 44t-10.5 51t-6 63t-2.5 70.5t-0.5 80.5q0 65 1 102t5 84.5t11.5 72.5t22 53.5t35.5 42t51.5 22.5t71.5 9q30 0 53.5 -3t42.5 -7t32.5 -15t23.5 -20t16.5 -28t10.5 -33.5t6.5 -43.5t3.5 -50t2 -60l-126 -16q-2 127 -12 151q-19 24 -53 25z" />
<glyph unicode="D" d="M36 745h167q64 0 107 -16t68 -42t38 -77.5t16.5 -102t3.5 -135.5q0 -57 -1 -94.5t-4.5 -78t-10 -65t-18 -50t-28 -39t-40 -25t-54 -16t-70.5 -4.5h-174v745zM206 647h-42v-541h49q59 0 75.5 56.5t16.5 209.5q0 171 -15.5 223t-83.5 52z" />
<glyph unicode="E" horiz-adv-x="345" d="M36 745h286v-100h-157v-200h129l-10 -102h-119v-244h162v-99h-291v745z" />
<glyph unicode="F" horiz-adv-x="348" d="M36 745h307v-100h-177v-213h139l-10 -103h-129v-329h-130v745z" />
<glyph unicode="G" horiz-adv-x="439" d="M239 394h171v-394h-94l-11 45q-13 -30 -38 -44t-76 -14q-34 0 -59.5 10t-43 25t-29.5 44.5t-18.5 56t-10 74t-4 83.5t-0.5 97q0 47 0.5 75t2.5 66.5t5.5 61t10.5 51.5t17 45t25 34t34.5 27t45.5 15t58 6q33 0 58 -2.5t43.5 -11t31.5 -16t22 -25.5t14 -31t8.5 -41.5 t4.5 -47.5l3 -58l-105 -26q-6 103 -18 128q-14 30 -56 30q-49 0 -62 -60.5t-13 -219.5q0 -150 12 -219t54 -69q56 0 68 61v144h-67z" />
<glyph unicode="H" horiz-adv-x="443" d="M36 745h130v-309h113v309h128v-745h-128v335h-113v-335h-130v745z" />
<glyph unicode="I" horiz-adv-x="201" d="M36 745h129v-745h-129v745z" />
<glyph unicode="J" horiz-adv-x="360" d="M324 745v-565q0 -41 -2.5 -67t-12 -52.5t-27 -41t-48 -23.5t-74.5 -9q-69 0 -102.5 26.5t-52.5 86.5l100 39q5 -26 16 -37.5t37 -11.5q25 0 32 16.5t7 66.5v572h127z" />
<glyph unicode="K" horiz-adv-x="422" d="M267 0l-62 364l-40 -81v-283h-129v745h129v-264l87 264h145l-118 -236l137 -509h-149z" />
<glyph unicode="L" horiz-adv-x="298" d="M36 745h130v-646h123v-99h-253v745z" />
<glyph unicode="M" horiz-adv-x="553" d="M214 0l-84 486v-486h-98v745h154l94 -544l97 544h144v-745h-105v487l-78 -487h-124z" />
<glyph unicode="N" horiz-adv-x="437" d="M34 0v745h134l126 -446v446h109v-745h-131l-127 446v-446h-111z" />
<glyph unicode="O" d="M234 758q37 0 65.5 -5.5t49.5 -19.5t35.5 -28.5t24.5 -43.5t15.5 -53t8 -68t3 -77t0.5 -91q0 -59 -0.5 -92t-3 -77t-8 -67.5t-15.5 -52.5t-24.5 -43.5t-35.5 -28.5t-49.5 -19t-65.5 -5t-65.5 5.5t-50 19t-37 29.5t-25.5 43.5t-16 53t-9 67t-4 77t-1 90.5q0 63 1 102 t5.5 84.5t13 72.5t23.5 54t37.5 41t54 23t73.5 9zM234 658q-45 0 -58.5 -60t-13.5 -226t13.5 -224t58.5 -58q44 0 55 55t11 227q0 173 -11 229.5t-55 56.5z" />
<glyph unicode="P" horiz-adv-x="407" d="M36 745h129q135 0 183 -48t48 -154q0 -120 -47 -178.5t-174 -58.5h-11v-306h-128v745zM198 641h-34v-234h27q50 0 64 28.5t14 98.5q0 33 -1.5 48t-8 31.5t-21 22t-40.5 5.5z" />
<glyph unicode="Q" d="M234 758q37 0 65.5 -5.5t49.5 -19.5t35.5 -28.5t24.5 -43.5t15.5 -53t8 -68t3 -77t0.5 -91q0 -80 -1.5 -123t-8 -94.5t-19.5 -78.5t-37 -49.5t-60 -31.5q39 -66 87 -104l-91 -68q-32 28 -61 74.5t-41 90.5q-42 3 -72 15t-49.5 37.5t-31 52.5t-17 75.5t-7 91t-1.5 112.5 q0 63 1 102t5.5 84.5t13 72.5t23.5 54t37.5 41t54 23t73.5 9zM234 658q-45 0 -58.5 -60t-13.5 -226t13.5 -224t58.5 -58q44 0 55 55t11 227q0 173 -11 229.5t-55 56.5z" />
<glyph unicode="R" horiz-adv-x="395" d="M390 0h-142l-56 334h-27v-334h-129v745h158q62 0 100 -10.5t57.5 -36t26 -58t6.5 -86.5q0 -87 -15.5 -138.5t-59.5 -66.5zM165 432h41q39 0 48.5 23t9.5 94q0 65 -9.5 84t-52.5 19h-37v-220z" />
<glyph unicode="S" horiz-adv-x="391" d="M201 758q48 0 80 -12t47.5 -37.5t21.5 -52t8 -66.5l-101 -14q-3 48 -12.5 65t-41.5 17q-34 0 -43 -18.5t-9 -65.5q0 -45 15.5 -70.5t48.5 -48.5q4 -3 30 -20.5t32.5 -23.5l27 -24.5t28 -33.5l19 -39t15.5 -53.5t4 -64.5q0 -106 -43 -157.5t-142 -51.5q-96 0 -130.5 50 t-42.5 181l110 22q5 -88 17.5 -119t46.5 -31q36 0 45 23t9 88q0 43 -12 72t-27 43.5t-49 39.5q-57 41 -91.5 91.5t-34.5 129.5q0 90 39 135.5t135 45.5z" />
<glyph unicode="T" horiz-adv-x="353" d="M2 745h350v-100h-112v-645h-128v645h-110v100z" />
<glyph unicode="U" horiz-adv-x="426" d="M34 745h129v-513q0 -31 0.5 -46.5t2 -35.5t4.5 -28.5t8.5 -17t14 -11.5t20.5 -3q34 0 42 28.5t8 113.5v513h129v-530q0 -60 -6 -97t-24 -69.5t-54.5 -47t-94.5 -14.5t-94.5 14t-54.5 46.5t-24 69.5t-6 98v530z" />
<glyph unicode="V" horiz-adv-x="413" d="M145 745l70 -522l71 522h122l-134 -745h-135l-134 745h140z" />
<glyph unicode="W" horiz-adv-x="640" d="M190 194l68 551h133l65 -549l45 549h134l-110 -745h-126l-74 559l-72 -559h-138l-110 745h138z" />
<glyph unicode="X" horiz-adv-x="420" d="M132 0h-127l139 388l-126 357h131l65 -216l61 216h119l-121 -344l142 -401h-133l-77 258z" />
<glyph unicode="Y" horiz-adv-x="374" d="M131 745l62 -300l68 300h107l-115 -432v-313h-128v313l-120 432h126z" />
<glyph unicode="Z" horiz-adv-x="344" d="M42 644v101h278v-82l-178 -563h189v-100h-321v85l184 559h-152z" />
<glyph unicode="[" horiz-adv-x="287" d="M26 -153v975h235v-78h-135v-817h135v-80h-235z" />
<glyph unicode="\" horiz-adv-x="258" d="M75 745l183 -745h-75l-183 745h75z" />
<glyph unicode="]" horiz-adv-x="287" d="M261 822v-975h-235v78h134v818h-134v79h235z" />
<glyph unicode="^" horiz-adv-x="500" d="M365 333l-116 265l-121 -265h-102l194 411h57l198 -411h-110z" />
<glyph unicode="_" horiz-adv-x="421" d="M422 -53v-71h-422v71h422z" />
<glyph unicode="`" horiz-adv-x="277" d="M5 704l65 75l160 -130l-43 -47z" />
<glyph unicode="a" horiz-adv-x="387" d="M187 552q99 0 131.5 -45t32.5 -149v-235q0 -14 3 -23t8.5 -13t11.5 -5.5t14 -1.5l-10 -80h-24q-79 0 -96 45q-19 -29 -44.5 -42.5t-70.5 -13.5q-65 0 -93 42t-28 106q0 55 7.5 87.5t29.5 58t64 36t111 10.5v43q0 50 -7 66.5t-37 16.5q-26 0 -36.5 -17t-12.5 -58l-103 8 q3 46 9.5 74t22 50t44 31t73.5 9zM234 165v94q-59 -4 -75.5 -25t-16.5 -89q0 -37 7 -51t26 -14q47 0 59 85z" />
<glyph unicode="b" horiz-adv-x="405" d="M161 805v-305q30 52 105 52q23 0 41 -7t30 -17.5t20.5 -32t13 -40.5t6.5 -54t2.5 -61.5t0.5 -72.5q0 -39 -0.5 -62t-3.5 -56.5t-8.5 -53t-16 -42.5t-25.5 -35t-37.5 -20.5t-52.5 -8.5q-48 0 -71 15t-45 53q0 -28 -20 -57h-64v784zM210 456q-44 0 -56 -53v-276 q15 -41 49 -41q36 0 46.5 34t10.5 151q0 120 -8 152.5t-42 32.5z" />
<glyph unicode="c" horiz-adv-x="379" d="M206 552q82 0 113 -39t36 -139l-99 -15q-4 55 -13.5 76t-36.5 21q-21 0 -33 -10.5t-17.5 -38t-7 -54.5t-1.5 -82q0 -105 8.5 -145.5t42.5 -40.5q33 0 44 23t17 87l99 -11q-2 -43 -8 -72.5t-21.5 -60t-48.5 -46.5t-82 -16q-35 0 -62.5 8.5t-45.5 20.5t-30.5 35t-19 42.5 t-10 54t-4 57.5t-0.5 64t0.5 64.5t4 58t10.5 53.5t20 42t32 35t47.5 20t65.5 8z" />
<glyph unicode="d" horiz-adv-x="419" d="M383 805v-805h-102q-7 27 -9 67q-29 -77 -108 -77q-32 0 -55.5 9t-38.5 28.5t-24 40.5t-13.5 54.5t-5.5 60.5t-1 68q0 53 1.5 85.5t6 71.5t15 61.5t27.5 43.5t44.5 30t64.5 9q60 0 78 -46v278zM215 455q-45 0 -55 -38t-10 -161q0 -103 6.5 -137t33.5 -34q36 0 50.5 22 t22.5 68v241q-9 21 -19 30t-29 9z" />
<glyph unicode="e" horiz-adv-x="403" d="M203 552q36 0 64 -8t46 -20t31 -33t19.5 -38.5t10 -46.5t4 -47.5t0.5 -48.5v-42h-236q0 -31 1 -48.5t3 -42.5t6.5 -38.5t12.5 -27.5t20.5 -20t29.5 -6q36 0 48.5 20t17.5 70l97 -15q-11 -89 -48.5 -130t-122.5 -41q-42 0 -73 10t-50.5 31.5t-31.5 44t-17.5 58.5t-7 64.5 t-1.5 71.5q0 56 2 90.5t12 75.5t28 63.5t52 38t83 15.5zM205 466q-19 0 -31 -7.5t-18 -27t-8 -37.5t-4 -54h121q0 30 -1 44t-4 33.5t-9 27.5t-17.5 14.5t-28.5 6.5z" />
<glyph unicode="f" horiz-adv-x="244" d="M244 543l-11 -86h-76v-457h-121v457h-46l10 86h36v76q0 106 28 144.5t99 38.5q61 0 87 -32l-22 -85q-18 23 -41 23q-13 0 -18.5 -5.5t-8.5 -27t-3 -67.5v-65h87z" />
<glyph unicode="g" horiz-adv-x="368" d="M339 378q0 -77 -31.5 -127t-95.5 -50h-28q-24 -14 -24 -42q0 -18 11 -30t32 -12h47q51 0 84.5 -40t33.5 -116q0 -97 -37.5 -138.5t-120.5 -41.5h-84q-61 0 -93.5 33.5t-32.5 85.5q0 64 24 92t82 38q-38 14 -53 34t-15 68q0 84 72 97q-75 42 -75 149q0 165 153 165 q28 0 54 -7q22 76 52 104l71 -38q-39 -24 -72 -93q46 -41 46 -131zM108 -62q0 -40 19 -55.5t67 -15.5q47 0 64 15t17 56q0 40 -16.5 52.5t-64.5 12.5q-49 0 -67.5 -13t-18.5 -52zM188 278q22 0 30 19t8 79q0 59 -7.5 76t-30.5 17q-22 0 -28.5 -17t-6.5 -76q0 -60 7 -79 t28 -19z" />
<glyph unicode="h" horiz-adv-x="423" d="M387 0h-121v414q0 41 -48 41q-18 0 -32 -16t-27 -56v-383h-123v784l123 21v-320q35 67 109 67q119 0 119 -145v-407z" />
<glyph unicode="i" horiz-adv-x="194" d="M158 543v-543h-122v543h122zM158 784v-130h-122v130h122z" />
<glyph unicode="j" horiz-adv-x="193" d="M157 784v-130h-121v130h121zM36 -25v568h121v-579q0 -106 -28 -144.5t-99 -38.5q-61 0 -87 32l22 85q18 -23 41 -23q13 0 18.5 5.5t8.5 27t3 67.5z" />
<glyph unicode="k" horiz-adv-x="386" d="M240 0l-46 279l-35 -52v-227h-123v784l123 21v-437l70 175h143l-100 -149l113 -394h-145z" />
<glyph unicode="l" horiz-adv-x="195" d="M159 0h-123v784l123 21v-805z" />
<glyph unicode="m" horiz-adv-x="630" d="M377 383v-383h-121v414q0 41 -43 41q-18 0 -29 -15.5t-25 -56.5v-383h-123v543h102q11 -41 12 -69q38 78 108 78q86 0 109 -77q20 39 45.5 58t63.5 19q118 0 118 -145v-407h-120v414q0 41 -44 41q-17 0 -28 -15.5t-25 -56.5z" />
<glyph unicode="n" horiz-adv-x="423" d="M138 543q11 -41 12 -69q38 78 118 78q119 0 119 -145v-407h-121v414q0 41 -48 41q-18 0 -32 -16t-27 -56v-383h-123v543h102z" />
<glyph unicode="o" horiz-adv-x="421" d="M210 552q34 0 61 -5.5t46 -18.5t32.5 -25.5t22 -36.5t13.5 -41t7 -49t2.5 -51t0.5 -56q0 -41 -0.5 -63t-4 -56.5t-10.5 -53.5t-20.5 -42.5t-33 -35.5t-49 -20.5t-67.5 -8.5t-67.5 8.5t-49 20.5t-32.5 35.5t-20 42.5t-10.5 53.5t-4 56.5t-0.5 63t0.5 63.5t4 57.5t10.5 54 t20.5 43t32.5 36t48.5 20.5t67.5 8.5zM210 455q-42 0 -51.5 -34.5t-9.5 -151.5q0 -116 9.5 -150t51.5 -34q43 0 52.5 34t9.5 150q0 42 -0.5 64t-2.5 47.5t-5.5 36.5t-10.5 21.5t-17.5 13.5t-25.5 3z" />
<glyph unicode="p" horiz-adv-x="415" d="M36 -219v762h102q5 -23 9 -67q29 77 108 77q38 0 64.5 -15t40.5 -36t22 -59.5t9.5 -69.5t1.5 -81q0 -65 -2 -102t-10.5 -80.5t-25 -66t-46.5 -37.5t-75 -15q-60 0 -78 46v-256h-120zM204 88q45 0 55 38t10 161q0 103 -6.5 137t-33.5 34q-36 0 -50.5 -22t-22.5 -69v-240 q9 -21 19 -30t29 -9z" />
<glyph unicode="q" horiz-adv-x="404" d="M244 -219v261q-30 -51 -106 -51q-23 0 -40.5 7t-30 17.5t-20.5 32t-12.5 40.5t-6.5 53.5t-2.5 61t-0.5 72.5t1 72.5t5 64t13 59t24.5 43t40.5 31t59 9.5q47 0 71 -15.5t46 -52.5q0 29 19 57h64v-762h-124zM194 87q45 0 57 52v277q-16 41 -50 41q-36 0 -46.5 -34.5 t-10.5 -151.5q0 -118 8 -151t42 -33z" />
<glyph unicode="r" horiz-adv-x="272" d="M36 543h96q10 -30 10 -74q32 74 129 74l-10 -121q-42 0 -64 -10.5t-38 -42.5v-369h-123v543z" />
<glyph unicode="s" horiz-adv-x="349" d="M177 552q81 0 106 -24.5t37 -99.5l-95 -17q-5 28 -12 38t-27 10q-22 0 -29 -11t-7 -33q0 -29 8.5 -46.5t37.5 -33.5q39 -22 54.5 -31.5t38 -31t30.5 -49.5t8 -68q0 -87 -38 -127.5t-122 -40.5q-77 0 -113.5 40t-36.5 129l105 16q0 -4 -0.5 -11.5t-0.5 -10.5 q0 -35 9 -51.5t36 -16.5q35 0 44.5 13t9.5 48q0 37 -15.5 57t-50.5 40q-63 34 -91 70.5t-28 100.5q0 70 31.5 105.5t110.5 35.5z" />
<glyph unicode="t" horiz-adv-x="266" d="M159 696v-153h107l-10 -86h-97v-314q0 -47 24 -47q13 0 20.5 9t17.5 31l50 -75q-14 -28 -45 -47t-76 -19q-114 0 -114 132v330h-41l10 86h31v133z" />
<glyph unicode="u" horiz-adv-x="404" d="M277 0q-11 34 -12 69q-35 -78 -110 -78q-119 0 -119 145v407h121v-414q0 -41 44 -41q35 0 55 72v383h123v-543h-102z" />
<glyph unicode="v" horiz-adv-x="363" d="M141 543l53 -352l50 352h114l-120 -543h-103l-130 543h136z" />
<glyph unicode="w" horiz-adv-x="517" d="M162 200l50 343h108l49 -343l32 343h111l-97 -543h-94l-55 359l-56 -359h-111l-94 543h127z" />
<glyph unicode="x" horiz-adv-x="334" d="M162 175l-50 -175h-107l104 290l-89 253h111l38 -129l37 129h100l-84 -241l107 -302h-114z" />
<glyph unicode="y" horiz-adv-x="362" d="M140 543l53 -352l49 352h115l-131 -591q-19 -83 -53 -127t-108 -44q-48 0 -75 17l52 102q11 -9 23 -9q39 0 68 113l-129 539h136z" />
<glyph unicode="z" horiz-adv-x="317" d="M38 453v90h251v-74l-156 -380h176v-89h-300v75l151 378h-122z" />
<glyph unicode="{" horiz-adv-x="331" d="M305 744h-47q-25 0 -36 -7.5t-17 -37t-6 -94.5v-136q0 -87 -99 -124q99 -47 99 -127v-151q0 -66 6 -96t16.5 -37t36.5 -7h47v-80h-56q-60 0 -102 36t-42 121v170q0 67 -14.5 95.5t-47.5 28.5h-37v92h37q34 0 48 30t14 91v172q0 73 41 106t99 33h60v-78z" />
<glyph unicode="|" horiz-adv-x="143" d="M26 -184v1003h92v-1003h-92z" />
<glyph unicode="}" horiz-adv-x="333" d="M73 744h-47v78h61q58 0 98.5 -32.5t40.5 -106.5v-172q0 -61 14 -91t47 -30h38v-92h-38q-31 0 -46 -29t-15 -95v-170q0 -85 -41 -121t-100 -36h-59v80h47q26 0 36.5 7t16 36.5t5.5 96.5v151q0 81 100 125q-100 39 -100 126v136q0 65 -5.5 94t-16.5 37t-36 8z" />
<glyph unicode="~" horiz-adv-x="554" d="M26 209v119q51 66 129 66q52 0 127 -29.5t107 -29.5q52 0 139 98v-117q-58 -65 -145 -65q-42 0 -115.5 30t-108.5 30q-49 0 -133 -102z" />
<glyph unicode="&#xa1;" horiz-adv-x="202" d="M176 -219h-150l24 549h102zM40 433v130h122v-130h-122z" />
<glyph unicode="&#xa2;" horiz-adv-x="377" d="M246 0h-83v104q-28 4 -49.5 14.5t-36 24t-24.5 36t-15.5 41.5t-8 51t-3 54t-0.5 60t0.5 59t3 52.5t8 50t15 41t24 35.5t36.5 24t50 15v83h83v-83q57 -8 81 -48.5t28 -126.5l-99 -14q-4 55 -13.5 76t-36.5 21q-21 0 -33 -10.5t-17.5 -38t-7 -54.5t-1.5 -82 q0 -105 8.5 -146t42.5 -41q33 0 44 23t17 88l99 -12q-2 -37 -6.5 -63.5t-15.5 -55t-33.5 -46.5t-56.5 -26v-106z" />
<glyph unicode="&#xa3;" horiz-adv-x="459" d="M374 297h-101q6 -29 6 -64q0 -91 -32 -158q24 -11 47 -11q82 0 87 83l65 -18q3 -17 3 -33q0 -58 -40.5 -91t-88.5 -33q-55 0 -116 50q-45 -37 -112 -37q-50 0 -66.5 21.5t-16.5 61.5q0 34 19.5 56.5t62.5 22.5q9 0 17.5 -1.5t19.5 -6t14.5 -5.5t18.5 -9.5t16 -8.5 q7 24 7 59q0 52 -17 122h-100l10 82h64q-44 126 -44 210q0 91 36.5 133t120.5 42q21 0 38.5 -1.5t31.5 -7t24.5 -10t19 -16l14 -18.5t10 -25.5l7 -28t4.5 -34.5l3 -38t3 -44l-104 -14q-3 77 -13.5 112t-38.5 35q-27 0 -37 -18.5t-10 -68.5q0 -29 5.5 -60.5t9.5 -46.5 t18 -54.5t16 -46.5h129zM101 90q-27 0 -27 -23q0 -9 7 -16.5t18 -7.5q31 0 54 21q-40 26 -52 26z" />
<glyph unicode="&#xa5;" horiz-adv-x="314" d="M45 322h64v81l-101 342h98l59 -228l57 228h87l-100 -342v-81h64v-74h-64v-77h64v-74h-64v-97h-100v97h-64v74h64v77h-64v74z" />
<glyph unicode="&#xa7;" horiz-adv-x="358" d="M187 782q80 0 105.5 -24.5t36.5 -99.5l-95 -17q-5 28 -12 38t-27 10q-22 0 -29 -11t-7 -33q0 -29 9 -47t37 -33q37 -20 53.5 -30.5t38.5 -31.5t30.5 -49.5t8.5 -68.5q0 -111 -64 -148q57 -46 57 -135q0 -86 -38.5 -127t-121.5 -41q-77 0 -113.5 40t-36.5 129l105 17 q0 -5 -0.5 -12.5t-0.5 -10.5q0 -35 9 -51.5t36 -16.5q35 0 44.5 13.5t9.5 48.5q0 36 -15.5 56.5t-50.5 40.5q-63 34 -91 70.5t-28 99.5q0 57 20 90.5t68 44.5q-42 28 -61.5 61.5t-19.5 86.5q0 70 31.5 105.5t111.5 35.5zM188 433q-33 0 -40 -13t-7 -59t7 -59t40 -13 q31 0 38.5 13.5t7.5 58.5t-7.5 58.5t-38.5 13.5z" />
<glyph unicode="&#xa8;" horiz-adv-x="317" d="M132 733v-120h-106v120h106zM291 733v-120h-106v120h106z" />
<glyph unicode="&#xaa;" horiz-adv-x="271" d="M133 752q65 0 86 -29t21 -96v-141q0 -17 23 -17l-8 -65h-22q-41 0 -56 30q-19 -37 -70 -37q-43 0 -62 28t-19 70q0 70 23.5 96t104.5 27v19q0 23 -4.5 32t-17.5 9q-21 0 -24 -46l-72 6q4 64 22.5 89t74.5 25zM127 469q21 0 27 44v46q-26 -3 -36.5 -15.5t-10.5 -43.5 t20 -31z" />
<glyph unicode="&#xab;" horiz-adv-x="329" d="M324 144l-30 -31l-153 178l153 180l30 -32l-98 -148zM190 144l-30 -31l-153 178l153 180l30 -32l-98 -148z" />
<glyph unicode="&#xad;" horiz-adv-x="214" d="M198 253h-191l11 81h190z" />
<glyph unicode="&#xaf;" horiz-adv-x="429" d="M26 699h377v-83h-377v83z" />
<glyph unicode="&#xb0;" horiz-adv-x="249" d="M125 756q50 0 74.5 -29t24.5 -77q0 -47 -24.5 -76.5t-74.5 -29.5t-74.5 29.5t-24.5 76.5q0 48 24 77t75 29zM125 720q-61 0 -61 -69q0 -70 61 -70q31 0 46 19.5t15 50.5q0 69 -61 69z" />
<glyph unicode="&#xb2;" horiz-adv-x="279" d="M135 800q-11 0 -16.5 -20t-10.5 -78l-82 11l3 50t5 39.5t11 33.5t19.5 21t31.5 15t45 4q59 0 81 -30.5t22 -106.5q0 -123 -101 -258h110l-3 -77h-221v71q130 133 130 264q0 34 -5 47.5t-19 13.5z" />
<glyph unicode="&#xb3;" horiz-adv-x="285" d="M141 876q67 0 86.5 -31.5t19.5 -99.5q0 -43 -10 -63.5t-33 -33.5q30 -8 42.5 -32t12.5 -74q0 -36 -3 -57t-14 -44.5t-36 -34t-66 -10.5q-61 0 -84.5 26.5t-29.5 82.5l79 26q5 -31 11.5 -43.5t22.5 -12.5q19 0 26.5 16t7.5 57q0 34 -9 46.5t-37 12.5h-30l8 75h23 q21 0 29 9.5t8 45.5q0 38 -5.5 50.5t-18.5 12.5q-10 0 -15 -11.5t-8 -43.5l-83 8q5 72 25.5 97.5t80.5 25.5z" />
<glyph unicode="&#xb4;" horiz-adv-x="275" d="M206 764l64 -75l-180 -102l-44 48z" />
<glyph unicode="&#xb5;" horiz-adv-x="367" d="M131 -219h-95v762h95v-427q4 -22 16 -30t37 -8q15 0 25 9t14.5 20.5t11.5 37.5v398h96v-543h-71q-2 6 -5 12t-4 8.5t-1.5 7.5t-0.5 13q-24 -51 -74 -51q-18 0 -44 13v-222z" />
<glyph unicode="&#xb6;" horiz-adv-x="459" d="M143 11v513q-59 7 -86 37t-27 71q0 49 40.5 81t121.5 32h259l-46 -88v-800h-96v665h-68v-520q0 -149 -148 -149q-52 0 -84 26l19 69q29 -18 58 -18q31 0 44 15.5t13 65.5z" />
<glyph unicode="&#xb7;" horiz-adv-x="173" d="M148 437v-130h-122v130h122z" />
<glyph unicode="&#xb8;" horiz-adv-x="223" d="M65 -68l14 73h43l-3 -48q78 0 78 -78q0 -34 -27.5 -54t-69.5 -20q-38 0 -74 16l15 37q21 -10 44 -10q21 0 34.5 11.5t13.5 32.5t-16 29.5t-52 10.5z" />
<glyph unicode="&#xb9;" horiz-adv-x="203" d="M37 737l-11 74q58 12 90 65h61v-472h-93v345q-23 -11 -47 -12z" />
<glyph unicode="&#xba;" horiz-adv-x="290" d="M145 752q34 0 57.5 -10.5t35.5 -24t18 -40.5t7 -46.5t1 -55.5q0 -37 -1 -56t-7 -46.5t-18 -41t-35.5 -24t-57.5 -10.5t-57.5 10.5t-35.5 24t-18 41t-7 46.5t-1 56q0 36 1 55.5t7 46.5t18 40.5t35.5 24t57.5 10.5zM145 678q-20 0 -26 -21t-6 -82q0 -62 6 -82.5t26 -20.5 t26 20.5t6 82.5q0 61 -6 82t-26 21z" />
<glyph unicode="&#xbb;" horiz-adv-x="329" d="M37 113l-30 31l98 147l-98 148l30 32l153 -180zM171 113l-30 31l98 147l-98 148l30 32l153 -180z" />
<glyph unicode="&#xbc;" horiz-adv-x="708" d="M50 653l-11 74q58 12 90 65h61v-472h-93v345q-23 -11 -47 -12zM227 -100h-86l286 882h89zM419 7v62l104 311h105v-294h28l-8 -79h-20v-91h-92v91h-117zM494 86h42v117z" />
<glyph unicode="&#xbd;" horiz-adv-x="708" d="M50 653l-11 74q58 12 90 65h61v-472h-93v345q-23 -11 -47 -12zM227 -100h-86l286 882h89zM556 312q-11 0 -16.5 -20t-10.5 -78l-82 11l3 50t5 39.5t11 33.5t19.5 21t31.5 15t45 4q59 0 81 -30.5t22 -106.5q0 -123 -101 -258h110l-3 -77h-221v71q130 133 130 264 q0 34 -5 47.5t-19 13.5z" />
<glyph unicode="&#xbe;" horiz-adv-x="708" d="M154 792q67 0 86.5 -31.5t19.5 -99.5q0 -43 -10 -63.5t-33 -33.5q30 -8 42.5 -32t12.5 -74q0 -36 -3 -57t-14 -44.5t-36 -34t-66 -10.5q-61 0 -84.5 26.5t-29.5 82.5l79 26q5 -31 11.5 -43.5t22.5 -12.5q19 0 26.5 16t7.5 57q0 34 -9 46.5t-37 12.5h-30l8 75h23 q21 0 29 9.5t8 45.5q0 38 -5.5 50.5t-18.5 12.5q-10 0 -15 -11.5t-8 -43.5l-83 8q5 72 25.5 97.5t80.5 25.5zM268 -100h-86l286 882h89zM419 7v62l104 311h105v-294h28l-8 -79h-20v-91h-92v91h-117zM494 86h42v117z" />
<glyph unicode="&#xbf;" horiz-adv-x="367" d="M142 -28q0 -51 8.5 -71t34.5 -20q16 0 26 8t15.5 29.5t8 44.5t4.5 66l115 -16q-2 -54 -6.5 -87.5t-15 -64t-29.5 -46.5t-49 -25t-75 -9q-97 0 -130.5 41.5t-33.5 147.5q0 47 14.5 86.5t35 67l41 53t35 57t14.5 65.5q0 25 -8 54h101q14 -27 14 -66q0 -48 -19 -93t-41 -74 t-41 -69t-19 -79zM133 449v130h122v-130h-122z" />
<glyph unicode="&#xc0;" horiz-adv-x="413" d="M267 0l-22 167h-95l-23 -167h-122l133 745h135l135 -745h-141zM198 536l-39 -267h76zM73 906l65 75l160 -130l-43 -47z" />
<glyph unicode="&#xc1;" horiz-adv-x="413" d="M267 0l-22 167h-95l-23 -167h-122l133 745h135l135 -745h-141zM198 536l-39 -267h76zM274 966l64 -75l-180 -102l-44 48z" />
<glyph unicode="&#xc2;" horiz-adv-x="413" d="M267 0l-22 167h-95l-23 -167h-122l133 745h135l135 -745h-141zM198 536l-39 -267h76zM152 815l-61 35l74 123h81l76 -124l-67 -32l-51 94z" />
<glyph unicode="&#xc3;" horiz-adv-x="413" d="M267 0l-22 167h-95l-23 -167h-122l133 745h135l135 -745h-141zM198 536l-39 -267h76zM109 822l-70 35q21 90 94 90q31 0 76 -21t57 -21q25 0 31 53l76 -23q-21 -98 -103 -98q-26 0 -70 19.5t-59 19.5q-19 0 -32 -54z" />
<glyph unicode="&#xc4;" horiz-adv-x="413" d="M267 0l-22 167h-95l-23 -167h-122l133 745h135l135 -745h-141zM198 536l-39 -267h76zM179 935v-120h-106v120h106zM338 935v-120h-106v120h106z" />
<glyph unicode="&#xc5;" horiz-adv-x="413" d="M267 0l-22 167h-95l-23 -167h-122l133 745h135l135 -745h-141zM198 536l-39 -267h76zM206 930q99 0 99 -85q0 -86 -99 -86q-100 0 -100 86q0 85 100 85zM206 889q-50 0 -50 -44q0 -42 50 -42q51 0 51 42q0 44 -51 44z" />
<glyph unicode="&#xc6;" horiz-adv-x="530" d="M249 177h-83l-23 -177h-133l131 745h375v-100h-146v-200h117l-10 -102h-107v-244h147v-99h-268v177zM226 645l-46 -364h69v364h-23z" />
<glyph unicode="&#xc7;" horiz-adv-x="436" d="M171 -68l12 57q-32 4 -56.5 15.5t-41 26.5t-28 43t-17.5 53t-9.5 70t-4 80t-0.5 95q0 65 1 102t5 84.5t11.5 72.5t22 53.5t35.5 42t51.5 22.5t71.5 9q30 0 53.5 -3t42.5 -7t32.5 -15t23.5 -20t16.5 -28t10.5 -33.5t6.5 -43.5t3.5 -50t2 -60l-126 -16q-2 127 -12 151 q-19 23 -53 25q-40 0 -51 -58.5t-11 -227.5q0 -168 11 -225t51 -57q18 0 29.5 5t18.5 15t9.5 31t3.5 45.5t2 66.5v10l128 -11q-9 -136 -24 -177q-24 -65 -95 -81q-29 -6 -69 -7l-2 -30q78 0 78 -78q0 -34 -27.5 -54t-69.5 -20q-38 0 -74 16l16 37q20 -10 43 -10 q21 0 34.5 11t13.5 33q0 21 -15.5 29.5t-52.5 10.5z" />
<glyph unicode="&#xc8;" horiz-adv-x="345" d="M36 745h286v-100h-157v-200h129l-10 -102h-119v-244h162v-99h-291v745zM39 906l65 75l160 -130l-43 -47z" />
<glyph unicode="&#xc9;" horiz-adv-x="345" d="M36 745h286v-100h-157v-200h129l-10 -102h-119v-244h162v-99h-291v745zM240 966l64 -75l-180 -102l-44 48z" />
<glyph unicode="&#xca;" horiz-adv-x="345" d="M36 745h286v-100h-157v-200h129l-10 -102h-119v-244h162v-99h-291v745zM118 815l-61 35l74 123h81l76 -124l-67 -32l-51 94z" />
<glyph unicode="&#xcb;" horiz-adv-x="345" d="M36 745h286v-100h-157v-200h129l-10 -102h-119v-244h162v-99h-291v745zM145 935v-120h-106v120h106zM304 935v-120h-106v120h106z" />
<glyph unicode="&#xcc;" horiz-adv-x="201" d="M36 745h129v-745h-129v745zM-32 906l65 75l160 -130l-43 -47z" />
<glyph unicode="&#xcd;" horiz-adv-x="201" d="M36 745h129v-745h-129v745zM169 966l64 -75l-180 -102l-44 48z" />
<glyph unicode="&#xce;" horiz-adv-x="201" d="M36 745h129v-745h-129v745zM47 815l-61 35l74 123h81l76 -124l-67 -32l-51 94z" />
<glyph unicode="&#xcf;" horiz-adv-x="201" d="M36 745h129v-745h-129v745zM74 935v-120h-106v120h106zM233 935v-120h-106v120h106z" />
<glyph unicode="&#xd0;" d="M0 343v102h36v300h167q64 0 107 -16t68 -42t38 -77.5t16.5 -102t3.5 -135.5q0 -57 -1 -94.5t-4.5 -78t-10 -65t-18 -50t-28 -39t-40 -25t-54 -16t-70.5 -4.5h-174v343h-36zM206 647h-42v-202h92l-10 -102h-82v-237h49q59 0 75.5 56.5t16.5 209.5q0 171 -15.5 223 t-83.5 52z" />
<glyph unicode="&#xd1;" horiz-adv-x="437" d="M34 0v745h134l126 -446v446h109v-745h-131l-127 446v-446h-111zM122 822l-70 35q21 90 94 90q31 0 76 -21t57 -21q25 0 31 53l76 -23q-21 -98 -103 -98q-26 0 -70 19.5t-59 19.5q-18 0 -32 -54z" />
<glyph unicode="&#xd2;" d="M234 758q37 0 65.5 -5.5t49.5 -19.5t35.5 -28.5t24.5 -43.5t15.5 -53t8 -68t3 -77t0.5 -91q0 -59 -0.5 -92t-3 -77t-8 -67.5t-15.5 -52.5t-24.5 -43.5t-35.5 -28.5t-49.5 -19t-65.5 -5t-65.5 5.5t-50 19t-37 29.5t-25.5 43.5t-16 53t-9 67t-4 77t-1 90.5q0 63 1 102 t5.5 84.5t13 72.5t23.5 54t37.5 41t54 23t73.5 9zM234 658q-45 0 -58.5 -60t-13.5 -226t13.5 -224t58.5 -58q44 0 55 55t11 227q0 173 -11 229.5t-55 56.5zM98 906l65 75l160 -130l-43 -47z" />
<glyph unicode="&#xd3;" d="M234 758q37 0 65.5 -5.5t49.5 -19.5t35.5 -28.5t24.5 -43.5t15.5 -53t8 -68t3 -77t0.5 -91q0 -59 -0.5 -92t-3 -77t-8 -67.5t-15.5 -52.5t-24.5 -43.5t-35.5 -28.5t-49.5 -19t-65.5 -5t-65.5 5.5t-50 19t-37 29.5t-25.5 43.5t-16 53t-9 67t-4 77t-1 90.5q0 63 1 102 t5.5 84.5t13 72.5t23.5 54t37.5 41t54 23t73.5 9zM234 658q-45 0 -58.5 -60t-13.5 -226t13.5 -224t58.5 -58q44 0 55 55t11 227q0 173 -11 229.5t-55 56.5zM299 966l64 -75l-180 -102l-44 48z" />
<glyph unicode="&#xd4;" d="M234 758q37 0 65.5 -5.5t49.5 -19.5t35.5 -28.5t24.5 -43.5t15.5 -53t8 -68t3 -77t0.5 -91q0 -59 -0.5 -92t-3 -77t-8 -67.5t-15.5 -52.5t-24.5 -43.5t-35.5 -28.5t-49.5 -19t-65.5 -5t-65.5 5.5t-50 19t-37 29.5t-25.5 43.5t-16 53t-9 67t-4 77t-1 90.5q0 63 1 102 t5.5 84.5t13 72.5t23.5 54t37.5 41t54 23t73.5 9zM234 658q-45 0 -58.5 -60t-13.5 -226t13.5 -224t58.5 -58q44 0 55 55t11 227q0 173 -11 229.5t-55 56.5zM177 815l-61 35l74 123h81l76 -124l-67 -32l-51 94z" />
<glyph unicode="&#xd5;" d="M234 758q37 0 65.5 -5.5t49.5 -19.5t35.5 -28.5t24.5 -43.5t15.5 -53t8 -68t3 -77t0.5 -91q0 -59 -0.5 -92t-3 -77t-8 -67.5t-15.5 -52.5t-24.5 -43.5t-35.5 -28.5t-49.5 -19t-65.5 -5t-65.5 5.5t-50 19t-37 29.5t-25.5 43.5t-16 53t-9 67t-4 77t-1 90.5q0 63 1 102 t5.5 84.5t13 72.5t23.5 54t37.5 41t54 23t73.5 9zM234 658q-45 0 -58.5 -60t-13.5 -226t13.5 -224t58.5 -58q44 0 55 55t11 227q0 173 -11 229.5t-55 56.5zM134 822l-70 35q21 90 94 90q31 0 76 -21t57 -21q25 0 31 53l76 -23q-21 -98 -103 -98q-26 0 -70 19.5t-59 19.5 q-18 0 -32 -54z" />
<glyph unicode="&#xd6;" d="M234 758q37 0 65.5 -5.5t49.5 -19.5t35.5 -28.5t24.5 -43.5t15.5 -53t8 -68t3 -77t0.5 -91q0 -59 -0.5 -92t-3 -77t-8 -67.5t-15.5 -52.5t-24.5 -43.5t-35.5 -28.5t-49.5 -19t-65.5 -5t-65.5 5.5t-50 19t-37 29.5t-25.5 43.5t-16 53t-9 67t-4 77t-1 90.5q0 63 1 102 t5.5 84.5t13 72.5t23.5 54t37.5 41t54 23t73.5 9zM234 658q-45 0 -58.5 -60t-13.5 -226t13.5 -224t58.5 -58q44 0 55 55t11 227q0 173 -11 229.5t-55 56.5zM204 935v-120h-106v120h106zM363 935v-120h-106v120h106z" />
<glyph unicode="&#xd7;" horiz-adv-x="442" d="M26 233l138 138l-138 139l57 56l138 -138l138 138l57 -56l-138 -139l138 -138l-57 -57l-138 139l-138 -139z" />
<glyph unicode="&#xd8;" d="M234 758q63 0 102 -18l16 42l60 -27l-22 -59q30 -41 38 -113t8 -211q0 -59 -0.5 -92t-3 -77t-8 -67.5t-15.5 -52.5t-24.5 -43.5t-35.5 -28.5t-49.5 -19t-65.5 -5q-56 0 -96 14l-15 -42l-58 24l20 55q-38 41 -48.5 116t-10.5 218q0 63 1 102t5.5 84.5t13 72.5t23.5 54 t37.5 41t54 23t73.5 9zM234 663q-47 0 -64.5 -65.5t-17.5 -225.5q0 -87 4 -136l135 377q-17 50 -57 50zM311 372q0 42 -2 100l-128 -353q17 -34 53 -34q46 0 61.5 62t15.5 225z" />
<glyph unicode="&#xd9;" horiz-adv-x="426" d="M34 745h129v-513q0 -31 0.5 -46.5t2 -35.5t4.5 -28.5t8.5 -17t14 -11.5t20.5 -3q34 0 42 28.5t8 113.5v513h129v-530q0 -60 -6 -97t-24 -69.5t-54.5 -47t-94.5 -14.5t-94.5 14t-54.5 46.5t-24 69.5t-6 98v530zM79 906l65 75l160 -130l-43 -47z" />
<glyph unicode="&#xda;" horiz-adv-x="426" d="M34 745h129v-513q0 -31 0.5 -46.5t2 -35.5t4.5 -28.5t8.5 -17t14 -11.5t20.5 -3q34 0 42 28.5t8 113.5v513h129v-530q0 -60 -6 -97t-24 -69.5t-54.5 -47t-94.5 -14.5t-94.5 14t-54.5 46.5t-24 69.5t-6 98v530zM281 966l64 -75l-180 -102l-44 48z" />
<glyph unicode="&#xdb;" horiz-adv-x="426" d="M34 745h129v-513q0 -31 0.5 -46.5t2 -35.5t4.5 -28.5t8.5 -17t14 -11.5t20.5 -3q34 0 42 28.5t8 113.5v513h129v-530q0 -60 -6 -97t-24 -69.5t-54.5 -47t-94.5 -14.5t-94.5 14t-54.5 46.5t-24 69.5t-6 98v530zM158 815l-61 35l74 123h81l76 -124l-67 -32l-51 94z" />
<glyph unicode="&#xdc;" horiz-adv-x="426" d="M34 745h129v-513q0 -31 0.5 -46.5t2 -35.5t4.5 -28.5t8.5 -17t14 -11.5t20.5 -3q34 0 42 28.5t8 113.5v513h129v-530q0 -60 -6 -97t-24 -69.5t-54.5 -47t-94.5 -14.5t-94.5 14t-54.5 46.5t-24 69.5t-6 98v530zM187 935v-120h-106v120h106zM346 935v-120h-106v120h106z " />
<glyph unicode="&#xdd;" horiz-adv-x="374" d="M131 745l62 -300l68 300h107l-115 -432v-313h-128v313l-120 432h126zM254 966l64 -75l-180 -102l-44 48z" />
<glyph unicode="&#xde;" horiz-adv-x="407" d="M165 745v-146h-3q76 0 117 -6.5t70 -28.5t38 -60.5t9 -106.5q0 -135 -46 -185.5t-178 -50.5h-7v-161h-129v745h129zM195 495h-31v-234h24q81 0 81 128q0 106 -74 106z" />
<glyph unicode="&#xdf;" horiz-adv-x="437" d="M203 805q58 0 96 -15t56 -44.5t24.5 -61.5t6.5 -79q0 -87 -18.5 -124t-71.5 -54q46 -8 69.5 -22.5t37.5 -55t14 -117.5q0 -36 -0.5 -55.5t-2.5 -46t-6 -40.5t-11.5 -32t-18.5 -27t-27 -19.5t-38 -14.5t-50 -7t-64 -3v100q17 -1 26 -1q41 0 52.5 29.5t11.5 128.5 q0 33 -1 47t-5 32t-13.5 24.5t-26.5 12t-44 7.5v98q43 1 53.5 24.5t10.5 98.5t-10.5 98t-44.5 23q-31 0 -40 -23t-9 -98v-588h-123v594q0 114 37.5 162.5t129.5 48.5z" />
<glyph unicode="&#xe0;" horiz-adv-x="387" d="M187 552q99 0 131.5 -45t32.5 -149v-235q0 -14 3 -23t8.5 -13t11.5 -5.5t14 -1.5l-10 -80h-24q-79 0 -96 45q-19 -29 -44.5 -42.5t-70.5 -13.5q-65 0 -93 42t-28 106q0 55 7.5 87.5t29.5 58t64 36t111 10.5v43q0 50 -7 66.5t-37 16.5q-26 0 -36.5 -17t-12.5 -58l-103 8 q3 46 9.5 74t22 50t44 31t73.5 9zM234 165v94q-59 -4 -75.5 -25t-16.5 -89q0 -37 7 -51t26 -14q47 0 59 85zM60 704l65 75l160 -130l-43 -47z" />
<glyph unicode="&#xe1;" horiz-adv-x="387" d="M187 552q99 0 131.5 -45t32.5 -149v-235q0 -14 3 -23t8.5 -13t11.5 -5.5t14 -1.5l-10 -80h-24q-79 0 -96 45q-19 -29 -44.5 -42.5t-70.5 -13.5q-65 0 -93 42t-28 106q0 55 7.5 87.5t29.5 58t64 36t111 10.5v43q0 50 -7 66.5t-37 16.5q-26 0 -36.5 -17t-12.5 -58l-103 8 q3 46 9.5 74t22 50t44 31t73.5 9zM234 165v94q-59 -4 -75.5 -25t-16.5 -89q0 -37 7 -51t26 -14q47 0 59 85zM262 764l64 -75l-180 -102l-44 48z" />
<glyph unicode="&#xe2;" horiz-adv-x="387" d="M187 552q99 0 131.5 -45t32.5 -149v-235q0 -14 3 -23t8.5 -13t11.5 -5.5t14 -1.5l-10 -80h-24q-79 0 -96 45q-19 -29 -44.5 -42.5t-70.5 -13.5q-65 0 -93 42t-28 106q0 55 7.5 87.5t29.5 58t64 36t111 10.5v43q0 50 -7 66.5t-37 16.5q-26 0 -36.5 -17t-12.5 -58l-103 8 q3 46 9.5 74t22 50t44 31t73.5 9zM234 165v94q-59 -4 -75.5 -25t-16.5 -89q0 -37 7 -51t26 -14q47 0 59 85zM139 613l-61 35l74 123h81l76 -124l-67 -32l-51 94z" />
<glyph unicode="&#xe3;" horiz-adv-x="387" d="M187 552q99 0 131.5 -45t32.5 -149v-235q0 -14 3 -23t8.5 -13t11.5 -5.5t14 -1.5l-10 -80h-24q-79 0 -96 45q-19 -29 -44.5 -42.5t-70.5 -13.5q-65 0 -93 42t-28 106q0 55 7.5 87.5t29.5 58t64 36t111 10.5v43q0 50 -7 66.5t-37 16.5q-26 0 -36.5 -17t-12.5 -58l-103 8 q3 46 9.5 74t22 50t44 31t73.5 9zM234 165v94q-59 -4 -75.5 -25t-16.5 -89q0 -37 7 -51t26 -14q47 0 59 85zM96 620l-70 35q21 90 94 90q31 0 76 -21t57 -21q25 0 31 53l76 -23q-21 -98 -103 -98q-26 0 -70 19.5t-59 19.5q-18 0 -32 -54z" />
<glyph unicode="&#xe4;" horiz-adv-x="387" d="M187 552q99 0 131.5 -45t32.5 -149v-235q0 -14 3 -23t8.5 -13t11.5 -5.5t14 -1.5l-10 -80h-24q-79 0 -96 45q-19 -29 -44.5 -42.5t-70.5 -13.5q-65 0 -93 42t-28 106q0 55 7.5 87.5t29.5 58t64 36t111 10.5v43q0 50 -7 66.5t-37 16.5q-26 0 -36.5 -17t-12.5 -58l-103 8 q3 46 9.5 74t22 50t44 31t73.5 9zM234 165v94q-59 -4 -75.5 -25t-16.5 -89q0 -37 7 -51t26 -14q47 0 59 85zM167 733v-120h-106v120h106zM326 733v-120h-106v120h106z" />
<glyph unicode="&#xe5;" horiz-adv-x="387" d="M187 552q99 0 131.5 -45t32.5 -149v-235q0 -14 3 -23t8.5 -13t11.5 -5.5t14 -1.5l-10 -80h-24q-79 0 -96 45q-19 -29 -44.5 -42.5t-70.5 -13.5q-65 0 -93 42t-28 106q0 55 7.5 87.5t29.5 58t64 36t111 10.5v43q0 50 -7 66.5t-37 16.5q-26 0 -36.5 -17t-12.5 -58l-103 8 q3 46 9.5 74t22 50t44 31t73.5 9zM234 165v94q-59 -4 -75.5 -25t-16.5 -89q0 -37 7 -51t26 -14q47 0 59 85zM194 749q99 0 99 -85q0 -86 -99 -86q-100 0 -100 86q0 85 100 85zM194 708q-50 0 -50 -44q0 -42 50 -42q51 0 51 42q0 44 -51 44z" />
<glyph unicode="&#xe6;" horiz-adv-x="615" d="M415 552q41 0 72 -9.5t49.5 -29.5t29.5 -39.5t16 -52t6 -54t1 -57.5v-42h-235q0 -38 1 -58t5 -48t11 -42t21 -24.5t34 -10.5q37 0 49.5 20t16.5 70l97 -15q-10 -89 -47.5 -130t-122.5 -41q-56 0 -82 18t-45 56q-10 -24 -21.5 -38t-42 -25t-80.5 -11q-66 0 -94 42t-28 106 q0 55 7.5 87.5t29.5 58t64 36t111 10.5v43q0 50 -7 66.5t-37 16.5q-26 0 -36 -16.5t-13 -58.5l-103 8q3 47 9.5 74t22 49.5t44 31.5t73.5 9q85 0 109 -44q28 44 115 44zM238 165v94q-59 -4 -75 -25t-16 -89q0 -37 7 -51t26 -14q46 0 58 85zM417 466q-37 0 -47.5 -28.5 t-13.5 -97.5h121q0 30 -1 44t-4 33.5t-9 27.5t-17.5 14.5t-28.5 6.5z" />
<glyph unicode="&#xe7;" horiz-adv-x="379" d="M153 -68l11 59q-33 4 -57 15.5t-39 33.5t-23.5 43t-12.5 57t-5 61.5t-1 69.5q0 41 0.5 64.5t4 58t10.5 53.5t20 42t32 35t47.5 20t65.5 8q82 0 113 -39t36 -139l-99 -15q-4 55 -13.5 76t-36.5 21q-21 0 -33 -10.5t-17.5 -38t-7 -54.5t-1.5 -82q0 -105 8.5 -145.5 t42.5 -40.5q33 0 44 23t17 87l99 -11q-2 -42 -7.5 -71t-20 -59t-45.5 -46.5t-77 -18.5l-2 -32q79 0 79 -78q0 -34 -28 -54t-69 -20q-39 0 -75 16l16 37q20 -10 43 -10q21 0 35 11t14 33q0 21 -16 29.5t-52 10.5z" />
<glyph unicode="&#xe8;" horiz-adv-x="403" d="M203 552q36 0 64 -8t46 -20t31 -33t19.5 -38.5t10 -46.5t4 -47.5t0.5 -48.5v-42h-236q0 -31 1 -48.5t3 -42.5t6.5 -38.5t12.5 -27.5t20.5 -20t29.5 -6q36 0 48.5 20t17.5 70l97 -15q-11 -89 -48.5 -130t-122.5 -41q-42 0 -73 10t-50.5 31.5t-31.5 44t-17.5 58.5t-7 64.5 t-1.5 71.5q0 56 2 90.5t12 75.5t28 63.5t52 38t83 15.5zM205 466q-19 0 -31 -7.5t-18 -27t-8 -37.5t-4 -54h121q0 30 -1 44t-4 33.5t-9 27.5t-17.5 14.5t-28.5 6.5zM68 704l65 75l160 -130l-43 -47z" />
<glyph unicode="&#xe9;" horiz-adv-x="403" d="M203 552q36 0 64 -8t46 -20t31 -33t19.5 -38.5t10 -46.5t4 -47.5t0.5 -48.5v-42h-236q0 -31 1 -48.5t3 -42.5t6.5 -38.5t12.5 -27.5t20.5 -20t29.5 -6q36 0 48.5 20t17.5 70l97 -15q-11 -89 -48.5 -130t-122.5 -41q-42 0 -73 10t-50.5 31.5t-31.5 44t-17.5 58.5t-7 64.5 t-1.5 71.5q0 56 2 90.5t12 75.5t28 63.5t52 38t83 15.5zM205 466q-19 0 -31 -7.5t-18 -27t-8 -37.5t-4 -54h121q0 30 -1 44t-4 33.5t-9 27.5t-17.5 14.5t-28.5 6.5zM270 764l64 -75l-180 -102l-44 48z" />
<glyph unicode="&#xea;" horiz-adv-x="403" d="M203 552q36 0 64 -8t46 -20t31 -33t19.5 -38.5t10 -46.5t4 -47.5t0.5 -48.5v-42h-236q0 -31 1 -48.5t3 -42.5t6.5 -38.5t12.5 -27.5t20.5 -20t29.5 -6q36 0 48.5 20t17.5 70l97 -15q-11 -89 -48.5 -130t-122.5 -41q-42 0 -73 10t-50.5 31.5t-31.5 44t-17.5 58.5t-7 64.5 t-1.5 71.5q0 56 2 90.5t12 75.5t28 63.5t52 38t83 15.5zM205 466q-19 0 -31 -7.5t-18 -27t-8 -37.5t-4 -54h121q0 30 -1 44t-4 33.5t-9 27.5t-17.5 14.5t-28.5 6.5zM147 613l-61 35l74 123h81l76 -124l-67 -32l-51 94z" />
<glyph unicode="&#xeb;" horiz-adv-x="403" d="M203 552q36 0 64 -8t46 -20t31 -33t19.5 -38.5t10 -46.5t4 -47.5t0.5 -48.5v-42h-236q0 -31 1 -48.5t3 -42.5t6.5 -38.5t12.5 -27.5t20.5 -20t29.5 -6q36 0 48.5 20t17.5 70l97 -15q-11 -89 -48.5 -130t-122.5 -41q-42 0 -73 10t-50.5 31.5t-31.5 44t-17.5 58.5t-7 64.5 t-1.5 71.5q0 56 2 90.5t12 75.5t28 63.5t52 38t83 15.5zM205 466q-19 0 -31 -7.5t-18 -27t-8 -37.5t-4 -54h121q0 30 -1 44t-4 33.5t-9 27.5t-17.5 14.5t-28.5 6.5zM175 733v-120h-106v120h106zM334 733v-120h-106v120h106z" />
<glyph unicode="&#xec;" horiz-adv-x="196" d="M160 543v-543h-124v543h124zM-35 704l65 75l160 -130l-43 -47z" />
<glyph unicode="&#xed;" horiz-adv-x="196" d="M160 543v-543h-124v543h124zM167 764l64 -75l-180 -102l-44 48z" />
<glyph unicode="&#xee;" horiz-adv-x="196" d="M160 543v-543h-124v543h124zM44 613l-61 35l74 123h81l76 -124l-67 -32l-51 94z" />
<glyph unicode="&#xef;" horiz-adv-x="196" d="M160 543v-543h-124v543h124zM72 733v-120h-106v120h106zM231 733v-120h-106v120h106z" />
<glyph unicode="&#xf0;" horiz-adv-x="443" d="M417 701l-51 -27q29 -102 29 -377v-43q0 -41 -0.5 -62.5t-4 -54.5t-10.5 -50.5t-20.5 -39.5t-33 -32.5t-49 -18t-67.5 -7.5q-34 0 -60.5 4.5t-45.5 16.5t-32.5 23t-22 33t-13.5 38t-7 46.5t-2.5 49t-0.5 54.5q0 40 0.5 62t3.5 55t8.5 51t16 39.5t26 32.5t39 18.5 t53.5 7.5q50 0 114 -16q-5 73 -21 115l-63 -34l-16 53l53 29q-27 35 -72 35l22 92q119 -5 157 -71l53 29zM210 423q-42 0 -51.5 -32t-9.5 -137t9.5 -137t51.5 -32t52 32t10 137t-10 137t-52 32z" />
<glyph unicode="&#xf1;" horiz-adv-x="423" d="M138 543q11 -41 12 -69q38 78 118 78q119 0 119 -145v-407h-121v414q0 41 -48 41q-18 0 -32 -16t-27 -56v-383h-123v543h102zM115 620l-70 35q21 90 94 90q31 0 76 -21t57 -21q25 0 31 53l76 -23q-21 -98 -103 -98q-26 0 -70 19.5t-59 19.5q-19 0 -32 -54z" />
<glyph unicode="&#xf2;" horiz-adv-x="421" d="M210 552q34 0 61 -5.5t46 -18.5t32.5 -25.5t22 -36.5t13.5 -41t7 -49t2.5 -51t0.5 -56q0 -41 -0.5 -63t-4 -56.5t-10.5 -53.5t-20.5 -42.5t-33 -35.5t-49 -20.5t-67.5 -8.5t-67.5 8.5t-49 20.5t-32.5 35.5t-20 42.5t-10.5 53.5t-4 56.5t-0.5 63t0.5 63.5t4 57.5t10.5 54 t20.5 43t32.5 36t48.5 20.5t67.5 8.5zM210 455q-42 0 -51.5 -34.5t-9.5 -151.5q0 -116 9.5 -150t51.5 -34q43 0 52.5 34t9.5 150q0 42 -0.5 64t-2.5 47.5t-5.5 36.5t-10.5 21.5t-17.5 13.5t-25.5 3zM77 704l65 75l160 -130l-43 -47z" />
<glyph unicode="&#xf3;" horiz-adv-x="421" d="M210 552q34 0 61 -5.5t46 -18.5t32.5 -25.5t22 -36.5t13.5 -41t7 -49t2.5 -51t0.5 -56q0 -41 -0.5 -63t-4 -56.5t-10.5 -53.5t-20.5 -42.5t-33 -35.5t-49 -20.5t-67.5 -8.5t-67.5 8.5t-49 20.5t-32.5 35.5t-20 42.5t-10.5 53.5t-4 56.5t-0.5 63t0.5 63.5t4 57.5t10.5 54 t20.5 43t32.5 36t48.5 20.5t67.5 8.5zM210 455q-42 0 -51.5 -34.5t-9.5 -151.5q0 -116 9.5 -150t51.5 -34q43 0 52.5 34t9.5 150q0 42 -0.5 64t-2.5 47.5t-5.5 36.5t-10.5 21.5t-17.5 13.5t-25.5 3zM278 764l64 -75l-180 -102l-44 48z" />
<glyph unicode="&#xf4;" horiz-adv-x="421" d="M210 552q34 0 61 -5.5t46 -18.5t32.5 -25.5t22 -36.5t13.5 -41t7 -49t2.5 -51t0.5 -56q0 -41 -0.5 -63t-4 -56.5t-10.5 -53.5t-20.5 -42.5t-33 -35.5t-49 -20.5t-67.5 -8.5t-67.5 8.5t-49 20.5t-32.5 35.5t-20 42.5t-10.5 53.5t-4 56.5t-0.5 63t0.5 63.5t4 57.5t10.5 54 t20.5 43t32.5 36t48.5 20.5t67.5 8.5zM210 455q-42 0 -51.5 -34.5t-9.5 -151.5q0 -116 9.5 -150t51.5 -34q43 0 52.5 34t9.5 150q0 42 -0.5 64t-2.5 47.5t-5.5 36.5t-10.5 21.5t-17.5 13.5t-25.5 3zM156 613l-61 35l74 123h81l76 -124l-67 -32l-51 94z" />
<glyph unicode="&#xf5;" horiz-adv-x="421" d="M210 552q34 0 61 -5.5t46 -18.5t32.5 -25.5t22 -36.5t13.5 -41t7 -49t2.5 -51t0.5 -56q0 -41 -0.5 -63t-4 -56.5t-10.5 -53.5t-20.5 -42.5t-33 -35.5t-49 -20.5t-67.5 -8.5t-67.5 8.5t-49 20.5t-32.5 35.5t-20 42.5t-10.5 53.5t-4 56.5t-0.5 63t0.5 63.5t4 57.5t10.5 54 t20.5 43t32.5 36t48.5 20.5t67.5 8.5zM210 455q-42 0 -51.5 -34.5t-9.5 -151.5q0 -116 9.5 -150t51.5 -34q43 0 52.5 34t9.5 150q0 42 -0.5 64t-2.5 47.5t-5.5 36.5t-10.5 21.5t-17.5 13.5t-25.5 3zM114 620l-70 35q21 90 94 90q31 0 76 -21t57 -21q25 0 31 53l76 -23 q-21 -98 -103 -98q-26 0 -70 19.5t-59 19.5q-18 0 -32 -54z" />
<glyph unicode="&#xf6;" horiz-adv-x="421" d="M210 552q34 0 61 -5.5t46 -18.5t32.5 -25.5t22 -36.5t13.5 -41t7 -49t2.5 -51t0.5 -56q0 -41 -0.5 -63t-4 -56.5t-10.5 -53.5t-20.5 -42.5t-33 -35.5t-49 -20.5t-67.5 -8.5t-67.5 8.5t-49 20.5t-32.5 35.5t-20 42.5t-10.5 53.5t-4 56.5t-0.5 63t0.5 63.5t4 57.5t10.5 54 t20.5 43t32.5 36t48.5 20.5t67.5 8.5zM210 455q-42 0 -51.5 -34.5t-9.5 -151.5q0 -116 9.5 -150t51.5 -34q43 0 52.5 34t9.5 150q0 42 -0.5 64t-2.5 47.5t-5.5 36.5t-10.5 21.5t-17.5 13.5t-25.5 3zM184 733v-120h-106v120h106zM343 733v-120h-106v120h106z" />
<glyph unicode="&#xf7;" horiz-adv-x="522" d="M496 331h-470v81h470v-81zM322 229v-130h-122v130h122zM322 642v-130h-122v130h122z" />
<glyph unicode="&#xf8;" horiz-adv-x="421" d="M210 552q38 0 70 -8l16 45l60 -27l-18 -49q26 -23 39.5 -66t15.5 -78.5t2 -99.5q0 -41 -0.5 -63t-4 -56.5t-10.5 -53.5t-20.5 -42.5t-33 -35.5t-49 -20.5t-67.5 -8.5q-34 0 -59 6l-13 -36l-58 24l13 36q-24 17 -38.5 42t-20.5 63.5t-7 65.5t-1 79q0 41 0.5 63.5t4 57.5 t10.5 54t20.5 43t32.5 36t48.5 20.5t67.5 8.5zM210 460q-43 0 -57.5 -40t-14.5 -151q0 -74 5 -109l104 290q-14 10 -37 10zM283 269q0 36 -2 84l-97 -269q9 -5 26 -5q44 0 58.5 40t14.5 150z" />
<glyph unicode="&#xf9;" horiz-adv-x="404" d="M277 0q-11 34 -12 69q-35 -78 -110 -78q-119 0 -119 145v407h121v-414q0 -41 44 -41q35 0 55 72v383h123v-543h-102zM69 704l65 75l160 -130l-43 -47z" />
<glyph unicode="&#xfa;" horiz-adv-x="404" d="M277 0q-11 34 -12 69q-35 -78 -110 -78q-119 0 -119 145v407h121v-414q0 -41 44 -41q35 0 55 72v383h123v-543h-102zM270 764l64 -75l-180 -102l-44 48z" />
<glyph unicode="&#xfb;" horiz-adv-x="404" d="M277 0q-11 34 -12 69q-35 -78 -110 -78q-119 0 -119 145v407h121v-414q0 -41 44 -41q35 0 55 72v383h123v-543h-102zM148 613l-61 35l74 123h81l76 -124l-67 -32l-51 94z" />
<glyph unicode="&#xfc;" horiz-adv-x="404" d="M277 0q-11 34 -12 69q-35 -78 -110 -78q-119 0 -119 145v407h121v-414q0 -41 44 -41q35 0 55 72v383h123v-543h-102zM175 733v-120h-106v120h106zM334 733v-120h-106v120h106z" />
<glyph unicode="&#xfd;" horiz-adv-x="362" d="M140 543l53 -352l49 352h115l-131 -591q-19 -83 -53 -127t-108 -44q-48 0 -75 17l52 102q11 -9 23 -9q39 0 68 113l-129 539h136zM249 764l64 -75l-180 -102l-44 48z" />
<glyph unicode="&#xfe;" horiz-adv-x="399" d="M380 305v-80q0 -41 -1.5 -64t-5.5 -54.5t-13.5 -48.5t-25 -34.5t-41 -25t-59.5 -7.5q-60 0 -78 46v-256h-120v1003l125 21v-305q30 52 105 52q27 0 47 -7.5t32 -26t19.5 -36.5t10.5 -51t4 -58t1 -68zM204 88q37 0 46.5 28.5t9.5 102.5v97q0 87 -8 113.5t-42 26.5 q-44 0 -56 -53v-276q9 -21 19.5 -30t30.5 -9z" />
<glyph unicode="&#xff;" horiz-adv-x="362" d="M140 543l53 -352l49 352h115l-131 -591q-19 -83 -53 -127t-108 -44q-48 0 -75 17l52 102q11 -9 23 -9q39 0 68 113l-129 539h136zM155 733v-120h-106v120h106zM314 733v-120h-106v120h106z" />
<glyph unicode="&#x152;" horiz-adv-x="609" d="M234 758q51 0 90 -13h264v-100h-157v-200h129l-10 -102h-119v-244h162v-99h-268q-41 -13 -91 -13q-37 0 -65.5 5.5t-50 19t-37 29.5t-25.5 43.5t-16 53t-9 67t-4 77t-1 90.5q0 63 1 102t5.5 84.5t13 72.5t23.5 54t37.5 41t54 23t73.5 9zM234 658q-45 0 -58.5 -60 t-13.5 -226t13.5 -224t58.5 -58q44 0 55 55t11 227q0 173 -11 229.5t-55 56.5z" />
<glyph unicode="&#x153;" horiz-adv-x="648" d="M448 552q41 0 72 -9.5t49.5 -29.5t29.5 -39.5t16 -52t6 -54t1 -57.5v-42h-235q0 -38 1 -58t5 -48t11 -42t21 -24.5t34 -10.5q37 0 49.5 20t16.5 70l97 -15q-10 -89 -47.5 -130t-122.5 -41q-41 0 -73 15t-45 39q-15 -24 -48 -39t-76 -15q-38 0 -67.5 8.5t-49 20.5 t-32.5 35.5t-20 42.5t-10.5 53.5t-4 56.5t-0.5 63t0.5 63.5t4 57.5t10.5 54t20.5 43t32.5 36t48.5 20.5t67.5 8.5q42 0 74.5 -15t47.5 -38q34 53 116 53zM210 455q-42 0 -51.5 -34.5t-9.5 -151.5q0 -116 9.5 -150t51.5 -34q43 0 52.5 34t9.5 150q0 42 -0.5 64t-2.5 47.5 t-5.5 36.5t-10.5 21.5t-17.5 13.5t-25.5 3zM450 466q-37 0 -47.5 -28.5t-13.5 -97.5h121q0 30 -1 44t-4 33.5t-9 27.5t-17.5 14.5t-28.5 6.5z" />
<glyph unicode="&#x178;" horiz-adv-x="374" d="M131 745l62 -300l68 300h107l-115 -432v-313h-128v313l-120 432h126zM160 935v-120h-106v120h106zM319 935v-120h-106v120h106z" />
<glyph unicode="&#x2c6;" horiz-adv-x="283" d="M87 613l-61 35l74 123h81l76 -124l-67 -32l-51 94z" />
<glyph unicode="&#x2dc;" horiz-adv-x="386" d="M96 620l-70 35q21 90 94 90q31 0 76 -21t57 -21q25 0 31 53l76 -23q-21 -98 -103 -98q-26 0 -70 19.5t-59 19.5q-18 0 -32 -54z" />
<glyph unicode="&#x2000;" horiz-adv-x="490" />
<glyph unicode="&#x2001;" horiz-adv-x="981" />
<glyph unicode="&#x2002;" horiz-adv-x="490" />
<glyph unicode="&#x2003;" horiz-adv-x="981" />
<glyph unicode="&#x2004;" horiz-adv-x="327" />
<glyph unicode="&#x2005;" horiz-adv-x="245" />
<glyph unicode="&#x2006;" horiz-adv-x="163" />
<glyph unicode="&#x2007;" horiz-adv-x="163" />
<glyph unicode="&#x2008;" horiz-adv-x="122" />
<glyph unicode="&#x2009;" horiz-adv-x="196" />
<glyph unicode="&#x200a;" horiz-adv-x="54" />
<glyph unicode="&#x2010;" horiz-adv-x="214" d="M198 253h-191l11 81h190z" />
<glyph unicode="&#x2011;" horiz-adv-x="214" d="M198 253h-191l11 81h190z" />
<glyph unicode="&#x2013;" horiz-adv-x="391" d="M376 253h-369l11 81h368z" />
<glyph unicode="&#x2014;" horiz-adv-x="598" d="M583 252h-576l11 82h575z" />
<glyph unicode="&#x2018;" horiz-adv-x="134" d="M7 543v105q0 70 73 146l33 -25q-44 -46 -44 -96h60v-130h-122z" />
<glyph unicode="&#x2019;" horiz-adv-x="134" d="M129 784v-105q0 -69 -73 -147l-33 26q44 44 44 96h-60v130h122z" />
<glyph unicode="&#x201a;" horiz-adv-x="134" d="M129 130v-105q0 -69 -73 -147l-33 26q44 44 44 96h-60v130h122z" />
<glyph unicode="&#x201c;" horiz-adv-x="289" d="M7 543v105q0 70 73 146l33 -25q-44 -46 -44 -96h60v-130h-122zM162 543v105q0 70 73 146l33 -25q-44 -44 -44 -96h60v-130h-122z" />
<glyph unicode="&#x201d;" horiz-adv-x="289" d="M284 784v-105q0 -70 -74 -147l-33 26q45 45 45 96h-60v130h122zM129 784v-105q0 -69 -73 -147l-33 26q44 44 44 96h-60v130h122z" />
<glyph unicode="&#x201e;" horiz-adv-x="289" d="M284 130v-105q0 -70 -74 -147l-33 26q45 45 45 96h-60v130h122zM129 130v-105q0 -69 -73 -147l-33 26q44 44 44 96h-60v130h122z" />
<glyph unicode="&#x2022;" horiz-adv-x="382" d="M191 529q69 0 117 -50t48 -125q0 -73 -48.5 -122.5t-116.5 -49.5q-71 0 -118 49t-47 123q0 76 47 125.5t118 49.5z" />
<glyph unicode="&#x2026;" horiz-adv-x="788" d="M148 130v-130h-122v130h122zM455 130v-130h-122v130h122zM763 130v-130h-122v130h122z" />
<glyph unicode="&#x202f;" horiz-adv-x="196" />
<glyph unicode="&#x2039;" horiz-adv-x="195" d="M190 144l-30 -31l-153 178l153 180l30 -32l-98 -148z" />
<glyph unicode="&#x203a;" horiz-adv-x="195" d="M37 113l-30 31l98 147l-98 148l30 32l153 -180z" />
<glyph unicode="&#x205f;" horiz-adv-x="245" />
<glyph unicode="&#x20ac;" horiz-adv-x="428" d="M262 658q-45 0 -59.5 -45.5t-16.5 -166.5h125l-23 -53h-102v-35h87l-21 -52h-66q1 -124 13 -170t49 -46q36 0 51 17t26 68l95 -40q-12 -69 -47.5 -108.5t-124.5 -39.5q-52 0 -87.5 13.5t-57 36.5t-33.5 66t-15.5 88t-4.5 115h-47l15 52h32v35h-47l15 53h32q1 68 5 111.5 t16 85.5t33.5 65t57 36.5t86.5 13.5q127 0 172 -55l-53 -117q-19 39 -41 55.5t-64 16.5z" />
<glyph unicode="&#x2122;" horiz-adv-x="519" d="M26 766h170v-62h-48v-263h-74v263h-48v62zM326 441l-37 187v-187h-63v325h93l42 -237l42 237h90v-325h-67v185l-34 -185h-66z" />
</font>
</defs>
</svg>
